<?xml version="1.0" standalone="no"?>
<!DOCTYPE svg PUBLIC "-//W3C//DTD SVG 20010904//EN"
 "http://www.w3.org/TR/2001/REC-SVG-20010904/DTD/svg10.dtd">
<svg version="1.0" xmlns="http://www.w3.org/2000/svg"
 width="512.000000pt" height="512.000000pt" viewBox="0 0 512.000000 512.000000"
 preserveAspectRatio="xMidYMid meet">

<g transform="translate(0.000000,512.000000) scale(0.100000,-0.100000)"
fill="#000000" stroke="none">
<path d="M20 4468 c-20 -22 -20 -23 -20 -1907 1 -2038 -3 -1909 54 -1931 38
-14 4974 -14 5012 0 57 22 53 -107 54 1931 0 1884 0 1885 -20 1907 l-21 22
-2519 0 -2519 0 -21 -22z m4930 -136 c0 -5 -13 -27 -29 -48 -47 -64 -2022
-2029 -2071 -2061 -176 -115 -404 -115 -580 0 -49 32 -2024 1997 -2071 2061
-16 21 -29 43 -29 48 0 4 1076 8 2390 8 1315 0 2390 -4 2390 -8z m-2700 -2270
c112 -55 193 -75 310 -75 116 0 197 20 310 74 l85 41 1008 1007 1007 1006 0
-1555 0 -1555 -708 708 c-645 644 -710 707 -740 707 -42 0 -72 -30 -72 -73 0
-29 62 -94 721 -752 397 -396 734 -738 750 -759 16 -21 29 -45 29 -53 0 -11
-390 -13 -2390 -13 -2000 0 -2390 2 -2390 13 0 8 13 32 29 53 16 21 353 363
750 759 659 658 721 723 721 752 0 43 -30 73 -72 73 -30 0 -95 -63 -740 -707
l-708 -708 0 1555 0 1555 1008 -1006 1007 -1006 85 -41z"/>
</g>
</svg>
