<svg xmlns="http://www.w3.org/2000/svg" xmlns:xlink="http://www.w3.org/1999/xlink" version="1.1" width="1000" height="1000" viewBox="0 0 1000 1000" xml:space="preserve">
<desc>Created with Fabric.js 3.5.0</desc>
<defs>
</defs>
<rect x="0" y="0" width="100%" height="100%" fill="#ffffff"/>
<g transform="matrix(1.756 0 0 -1.6164 499.2897 499.29)" id="763355">
<path style="stroke: none; stroke-width: 1; stroke-dasharray: none; stroke-linecap: butt; stroke-dashoffset: 0; stroke-linejoin: miter; stroke-miterlimit: 4; is-custom-font: none; font-file-url: none; fill: rgb(0,0,0); fill-rule: nonzero; opacity: 1;" transform=" translate(-404.8117, -401.6301)" d="M 177 704 c -4 -4 -7 -30 -7 -58 c 0 -44 -3 -53 -22 -61 c -31 -14 -31 -56 0 -70 c 12 -5 22 -14 22 -20 c 0 -6 -10 -15 -22 -20 c -15 -7 -23 -19 -23 -35 c 0 -16 8 -28 23 -35 c 12 -5 22 -14 22 -20 c 0 -6 -10 -15 -23 -20 c -30 -14 -30 -56 1 -70 c 28 -12 28 -28 0 -40 c -31 -13 -31 -56 -1 -70 c 17 -7 23 -19 25 -50 l 3 -40 l 255 0 l 255 0 l 0 305 l 0 305 l -251 3 c -138 1 -253 -1 -257 -4 z m 493 -304 l 0 -290 l -240 0 l -240 0 l 0 55 c 0 51 -12 73 -23 43 c -3 -10 -7 -10 -17 -1 c -7 6 -9 16 -6 22 c 9 15 49 14 64 -1 c 9 -9 15 -9 23 -1 c 15 15 3 33 -22 33 c -15 0 -19 7 -19 35 c 0 34 -14 48 -23 23 c -3 -10 -7 -10 -17 -1 c -7 6 -9 16 -6 22 c 9 15 49 14 64 -1 c 9 -9 15 -9 23 -1 c 15 15 3 33 -22 33 c -15 0 -19 7 -19 35 c 0 34 -14 48 -23 23 c -3 -10 -7 -10 -17 -1 c -7 6 -9 16 -6 22 c 9 15 49 14 64 -1 c 9 -9 15 -9 23 -1 c 15 15 3 33 -22 33 c -15 0 -19 7 -19 35 c 0 34 -14 48 -23 23 c -3 -10 -7 -10 -17 -1 c -7 6 -9 16 -6 22 c 9 15 49 14 64 -1 c 9 -9 15 -9 23 -1 c 15 15 3 33 -22 33 c -16 0 -19 7 -19 50 l 0 50 l 240 0 l 240 0 l 0 -290 z" stroke-linecap="round"/>
</g>
<g transform="matrix(1.6183 0 0 -1.6183 252.2585 78.9094)" id="226968">
<path style="stroke: none; stroke-width: 1; stroke-dasharray: none; stroke-linecap: butt; stroke-dashoffset: 0; stroke-linejoin: miter; stroke-miterlimit: 4; is-custom-font: none; font-file-url: none; fill: rgb(0,0,0); fill-rule: nonzero; opacity: 1;" transform=" translate(-280, -660)" d="M 270 660 c 0 -5 5 -10 10 -10 c 6 0 10 5 10 10 c 0 6 -4 10 -10 10 c -5 0 -10 -4 -10 -10 z" stroke-linecap="round"/>
</g>
<g transform="matrix(1.6183 0 0 -1.6183 252.2585 143.6423)" id="856313">
<path style="stroke: none; stroke-width: 1; stroke-dasharray: none; stroke-linecap: butt; stroke-dashoffset: 0; stroke-linejoin: miter; stroke-miterlimit: 4; is-custom-font: none; font-file-url: none; fill: rgb(0,0,0); fill-rule: nonzero; opacity: 1;" transform=" translate(-280, -620)" d="M 270 620 c 0 -5 5 -10 10 -10 c 6 0 10 5 10 10 c 0 6 -4 10 -10 10 c -5 0 -10 -4 -10 -10 z" stroke-linecap="round"/>
</g>
<g transform="matrix(1.6183 0 0 -1.6183 252.2585 208.3753)" id="794320">
<path style="stroke: none; stroke-width: 1; stroke-dasharray: none; stroke-linecap: butt; stroke-dashoffset: 0; stroke-linejoin: miter; stroke-miterlimit: 4; is-custom-font: none; font-file-url: none; fill: rgb(0,0,0); fill-rule: nonzero; opacity: 1;" transform=" translate(-280, -580)" d="M 270 580 c 0 -5 5 -10 10 -10 c 6 0 10 5 10 10 c 0 6 -4 10 -10 10 c -5 0 -10 -4 -10 -10 z" stroke-linecap="round"/>
</g>
<g transform="matrix(1.6183 0 0 -1.6183 543.5543 305.4733)" id="374474">
<path style="stroke: none; stroke-width: 1; stroke-dasharray: none; stroke-linecap: butt; stroke-dashoffset: 0; stroke-linejoin: miter; stroke-miterlimit: 4; is-custom-font: none; font-file-url: none; fill: rgb(0,0,0); fill-rule: nonzero; opacity: 1;" transform=" translate(-460, -520)" d="M 350 520 l 0 -70 l 110 0 l 110 0 l 0 70 l 0 70 l -110 0 l -110 0 l 0 -70 z m 200 0 l 0 -50 l -90 0 l -90 0 l 0 50 l 0 50 l 90 0 l 90 0 l 0 -50 z" stroke-linecap="round"/>
</g>
<g transform="matrix(1.6183 0 0 -1.6183 252.2585 273.1082)" id="533508">
<path style="stroke: none; stroke-width: 1; stroke-dasharray: none; stroke-linecap: butt; stroke-dashoffset: 0; stroke-linejoin: miter; stroke-miterlimit: 4; is-custom-font: none; font-file-url: none; fill: rgb(0,0,0); fill-rule: nonzero; opacity: 1;" transform=" translate(-280, -540)" d="M 270 540 c 0 -5 5 -10 10 -10 c 6 0 10 5 10 10 c 0 6 -4 10 -10 10 c -5 0 -10 -4 -10 -10 z" stroke-linecap="round"/>
</g>
<g transform="matrix(1.6183 0 0 -1.6183 252.2585 337.8411)" id="997276">
<path style="stroke: none; stroke-width: 1; stroke-dasharray: none; stroke-linecap: butt; stroke-dashoffset: 0; stroke-linejoin: miter; stroke-miterlimit: 4; is-custom-font: none; font-file-url: none; fill: rgb(0,0,0); fill-rule: nonzero; opacity: 1;" transform=" translate(-280, -500)" d="M 270 500 c 0 -5 5 -10 10 -10 c 6 0 10 5 10 10 c 0 6 -4 10 -10 10 c -5 0 -10 -4 -10 -10 z" stroke-linecap="round"/>
</g>
<g transform="matrix(1.6183 0 0 -1.6183 252.2585 402.5741)" id="996657">
<path style="stroke: none; stroke-width: 1; stroke-dasharray: none; stroke-linecap: butt; stroke-dashoffset: 0; stroke-linejoin: miter; stroke-miterlimit: 4; is-custom-font: none; font-file-url: none; fill: rgb(0,0,0); fill-rule: nonzero; opacity: 1;" transform=" translate(-280, -460)" d="M 270 460 c 0 -5 5 -10 10 -10 c 6 0 10 5 10 10 c 0 6 -4 10 -10 10 c -5 0 -10 -4 -10 -10 z" stroke-linecap="round"/>
</g>
<g transform="matrix(1.6183 0 0 -1.6183 252.2585 467.3071)" id="659841">
<path style="stroke: none; stroke-width: 1; stroke-dasharray: none; stroke-linecap: butt; stroke-dashoffset: 0; stroke-linejoin: miter; stroke-miterlimit: 4; is-custom-font: none; font-file-url: none; fill: rgb(0,0,0); fill-rule: nonzero; opacity: 1;" transform=" translate(-280, -420)" d="M 270 420 c 0 -5 5 -10 10 -10 c 6 0 10 5 10 10 c 0 6 -4 10 -10 10 c -5 0 -10 -4 -10 -10 z" stroke-linecap="round"/>
</g>
<g transform="matrix(1.6183 0 0 -1.6183 543.5543 499.6735)" id="113450">
<path style="stroke: none; stroke-width: 1; stroke-dasharray: none; stroke-linecap: butt; stroke-dashoffset: 0; stroke-linejoin: miter; stroke-miterlimit: 4; is-custom-font: none; font-file-url: none; fill: rgb(0,0,0); fill-rule: nonzero; opacity: 1;" transform=" translate(-460, -400)" d="M 350 400 c 0 -6 43 -10 110 -10 c 67 0 110 4 110 10 c 0 6 -43 10 -110 10 c -67 0 -110 -4 -110 -10 z" stroke-linecap="round"/>
</g>
<g transform="matrix(1.6183 0 0 -1.6183 252.2585 532.04)" id="114201">
<path style="stroke: none; stroke-width: 1; stroke-dasharray: none; stroke-linecap: butt; stroke-dashoffset: 0; stroke-linejoin: miter; stroke-miterlimit: 4; is-custom-font: none; font-file-url: none; fill: rgb(0,0,0); fill-rule: nonzero; opacity: 1;" transform=" translate(-280, -380)" d="M 270 380 c 0 -5 5 -10 10 -10 c 6 0 10 5 10 10 c 0 6 -4 10 -10 10 c -5 0 -10 -4 -10 -10 z" stroke-linecap="round"/>
</g>
<g transform="matrix(1.6183 0 0 -1.6183 543.5543 580.5898)" id="371932">
<path style="stroke: none; stroke-width: 1; stroke-dasharray: none; stroke-linecap: butt; stroke-dashoffset: 0; stroke-linejoin: miter; stroke-miterlimit: 4; is-custom-font: none; font-file-url: none; fill: rgb(0,0,0); fill-rule: nonzero; opacity: 1;" transform=" translate(-460, -350)" d="M 350 350 c 0 -6 43 -10 110 -10 c 67 0 110 4 110 10 c 0 6 -43 10 -110 10 c -67 0 -110 -4 -110 -10 z" stroke-linecap="round"/>
</g>
<g transform="matrix(1.6183 0 0 -1.6183 252.2585 596.773)" id="575745">
<path style="stroke: none; stroke-width: 1; stroke-dasharray: none; stroke-linecap: butt; stroke-dashoffset: 0; stroke-linejoin: miter; stroke-miterlimit: 4; is-custom-font: none; font-file-url: none; fill: rgb(0,0,0); fill-rule: nonzero; opacity: 1;" transform=" translate(-280, -340)" d="M 270 340 c 0 -5 5 -10 10 -10 c 6 0 10 5 10 10 c 0 6 -4 10 -10 10 c -5 0 -10 -4 -10 -10 z" stroke-linecap="round"/>
</g>
<g transform="matrix(1.6183 0 0 -1.6183 252.2585 661.5059)" id="541983">
<path style="stroke: none; stroke-width: 1; stroke-dasharray: none; stroke-linecap: butt; stroke-dashoffset: 0; stroke-linejoin: miter; stroke-miterlimit: 4; is-custom-font: none; font-file-url: none; fill: rgb(0,0,0); fill-rule: nonzero; opacity: 1;" transform=" translate(-280, -300)" d="M 270 300 c 0 -5 5 -10 10 -10 c 6 0 10 5 10 10 c 0 6 -4 10 -10 10 c -5 0 -10 -4 -10 -10 z" stroke-linecap="round"/>
</g>
<g transform="matrix(1.6183 0 0 -1.6183 462.6393 661.5059)" id="889886">
<path style="stroke: none; stroke-width: 1; stroke-dasharray: none; stroke-linecap: butt; stroke-dashoffset: 0; stroke-linejoin: miter; stroke-miterlimit: 4; is-custom-font: none; font-file-url: none; fill: rgb(0,0,0); fill-rule: nonzero; opacity: 1;" transform=" translate(-410, -300)" d="M 350 300 c 0 -6 27 -10 60 -10 c 33 0 60 4 60 10 c 0 6 -27 10 -60 10 c -33 0 -60 -4 -60 -10 z" stroke-linecap="round"/>
</g>
<g transform="matrix(1.6183 0 0 -1.6183 252.2585 726.2389)" id="386026">
<path style="stroke: none; stroke-width: 1; stroke-dasharray: none; stroke-linecap: butt; stroke-dashoffset: 0; stroke-linejoin: miter; stroke-miterlimit: 4; is-custom-font: none; font-file-url: none; fill: rgb(0,0,0); fill-rule: nonzero; opacity: 1;" transform=" translate(-280, -260)" d="M 270 260 c 0 -5 5 -10 10 -10 c 6 0 10 5 10 10 c 0 6 -4 10 -10 10 c -5 0 -10 -4 -10 -10 z" stroke-linecap="round"/>
</g>
<g transform="matrix(1.6183 0 0 -1.6183 252.2585 790.9718)" id="657053">
<path style="stroke: none; stroke-width: 1; stroke-dasharray: none; stroke-linecap: butt; stroke-dashoffset: 0; stroke-linejoin: miter; stroke-miterlimit: 4; is-custom-font: none; font-file-url: none; fill: rgb(0,0,0); fill-rule: nonzero; opacity: 1;" transform=" translate(-280, -220)" d="M 270 220 c 0 -5 5 -10 10 -10 c 6 0 10 5 10 10 c 0 6 -4 10 -10 10 c -5 0 -10 -4 -10 -10 z" stroke-linecap="round"/>
</g>
<g transform="matrix(1.6183 0 0 -1.6183 252.2585 855.7047)" id="136784">
<path style="stroke: none; stroke-width: 1; stroke-dasharray: none; stroke-linecap: butt; stroke-dashoffset: 0; stroke-linejoin: miter; stroke-miterlimit: 4; is-custom-font: none; font-file-url: none; fill: rgb(0,0,0); fill-rule: nonzero; opacity: 1;" transform=" translate(-280, -180)" d="M 270 180 c 0 -5 5 -10 10 -10 c 6 0 10 5 10 10 c 0 6 -4 10 -10 10 c -5 0 -10 -4 -10 -10 z" stroke-linecap="round"/>
</g>
<g transform="matrix(1.6183 0 0 -1.6183 252.2585 920.4377)" id="802678">
<path style="stroke: none; stroke-width: 1; stroke-dasharray: none; stroke-linecap: butt; stroke-dashoffset: 0; stroke-linejoin: miter; stroke-miterlimit: 4; is-custom-font: none; font-file-url: none; fill: rgb(0,0,0); fill-rule: nonzero; opacity: 1;" transform=" translate(-280, -140)" d="M 270 140 c 0 -5 5 -10 10 -10 c 6 0 10 5 10 10 c 0 6 -4 10 -10 10 c -5 0 -10 -4 -10 -10 z" stroke-linecap="round"/>
</g>
</svg>