<svg xmlns="http://www.w3.org/2000/svg" version="1.0" width="512.000000" height="512.000000" preserveAspectRatio="xMidYMid meet"><rect id="backgroundrect" width="100%" height="100%" x="0" y="0" fill="none" stroke="none"/>


<g class="currentLayer" style=""><title>Layer 1</title><g transform="translate(0,512) scale(0.10000000149011612,-0.10000000149011612) " fill="#000000" stroke="none" id="svg_1" class="">
<path d="M2278.5072212803107,5096.2254568210465 c-485.32215901677426,-54.443149285744795 -969.2848722099724,-265.41035276800585 -1352.6485944585165,-586.6249335539003 c-637.5800912573311,-533.542863000299 -977.4415471514305,-1373.3284407329122 -890.437014442541,-2200.864309876233 c126.42846159260507,-1203.1935992149592 1069.883863154626,-2147.782239322632 2271.6339711961623,-2274.3625614119887 c825.1836149108739,-87.10903885719168 1665.3211338810888,253.16064417871328 2198.2238967230373,891.5065695540709 c792.5569151450404,947.3107975719594 800.7135900864988,2290.695506197712 20.391687353645985,3255.700327287538 c-530.1838711947955,656.0399488932248 -1400.2291982836905,1009.9204192505658 -2247.1639463717875,914.6449080005125 zm588.6400416085806,-195.99533742868118 c1367.6024985178574,-179.6623926429578 2282.5095377847733,-1482.2147393044017 1991.5881315394245,-2836.4880777873036 c-85.64508688531315,-402.8793047145115 -284.12417712746736,-782.6202709825814 -569.6078000785109,-1095.6683793756138 c-89.72342435604232,-97.99766871434059 -262.3730439502449,-253.16064417871328 -282.7647313038909,-253.16064417871328 c-5.4377832943055955,0 -14.953904059340386,42.19344069645223 -20.391687353645985,93.91443251790975 c-42.14282053086836,466.8500051252615 -395.59873466073196,941.8664826433849 -844.2158564409438,1137.8618200720657 l-101.95843676822992,43.55451942859584 l82.92619523816032,51.72099182145756 c247.41913989090455,152.4408180000854 425.50654277941277,415.129013303804 482.6032673696215,710.4830981789694 c88.36397853246592,465.48892639311805 -160.41460718201506,943.2275613755288 -596.796716550039,1148.7504499292152 c-271.8891647152798,126.58032208935664 -617.188403903685,126.58032208935664 -889.0775686189647,0 c-486.68160484035076,-228.66122700012812 -728.6629614369497,-782.6202709825814 -560.0916793134762,-1286.219401875721 c77.48841194385471,-234.1055419287027 224.30856089010578,-427.37872189309667 425.50654277941277,-559.4033589110279 l103.3178825918063,-66.69285787503738 l-78.84785776743112,-32.66588957144688 c-352.09646830628725,-148.35758180365463 -651.1745494930949,-458.68353273239984 -785.7596860271585,-816.6472392861716 c-47.580603825173945,-127.94140082150027 -87.00453270888953,-298.0762423394528 -87.00453270888953,-377.01880880378263 c0,-25.86049591072878 -5.4377832943055955,-47.6377556250267 -13.594458235763987,-47.6377556250267 c-20.391687353645985,0 -190.32241530069578,151.0797392679418 -284.12417712746736,253.16064417871328 c-311.31309359899535,338.9086043037613 -508.4327380175732,743.1489877504163 -594.0778249028864,1209.998992875678 c-17.672795706493183,99.35874744648427 -24.470024824375177,204.1618098215429 -24.470024824375177,387.90743866093163 c-1.3594458235763989,269.49358896443664 10.875566588611191,364.7691002144901 73.41007447312553,605.6800358039108 c297.71863536323133,1136.5007413399221 1405.6669815779965,1882.3718865546264 2573.430944030123,1728.5699898223966 zm-99.23954512107709,-1117.4456390899122 c237.90301912586978,-55.80422801788842 462.2115800159755,-234.1055419287027 569.6078000785109,-454.60029653596905 c126.42846159260507,-258.60495910728775 126.42846159260507,-511.76560328600107 2.7188916471527977,-770.3705623932888 c-62.53450788451435,-132.02463701793113 -201.19798188930702,-285.82653375016014 -319.4697685404537,-357.963706553772 c-479.88437572246875,-288.54869121444744 -1094.353887979001,-68.05393660718102 -1276.5196283382384,458.68353273239984 c-77.48841194385471,225.93906953584096 -62.53450788451435,447.7949028752508 46.221158001597566,669.650736214661 c106.03677423895908,217.77259714297918 330.34533512906495,398.79606851808063 562.8105709606291,454.60029653596905 c108.7556658861119,25.86049591072878 304.5158644811133,25.86049591072878 414.6309761908016,0 zm50.299495472326754,-1932.73179964394 c477.165484075316,-97.99766871434059 863.2480979710131,-483.182949910985 962.4876430920903,-956.8383486969648 c9.51612076503479,-48.9988343571703 21.751133177222382,-141.55218814293644 27.188916471527975,-205.52288855368664 l9.51612076503479,-115.69169223220766 l-100.59899094465351,-57.16530675003203 c-203.91687353645983,-117.05277096435135 -436.3821093680241,-202.8007310893993 -702.8334907889982,-258.60495910728775 c-149.5390405934039,-31.304810839303258 -203.91687353645983,-36.749125767877736 -436.3821093680241,-36.749125767877736 c-414.6309761908016,-1.3610787321436213 -710.9901657304566,66.69285787503738 -1067.1649715074732,244.99417178585156 c-221.58966924295302,110.24737730363317 -205.27631936003618,85.74796012504804 -186.24407782996667,273.57682516086754 c36.705037236562774,349.79723416091053 193.04130694784862,646.5123977682194 449.97656760378794,854.7574437861933 c157.69571553486225,127.94140082150027 341.22090171767604,217.77259714297918 524.7460879004898,255.88280164300053 c129.1473532397579,28.582653375016026 388.80150554285,28.582653375016026 519.3083046061843,1.3610787321436213 z" id="svg_2"/>
</g></g></svg>