<?xml version="1.0" standalone="no"?>
<!DOCTYPE svg PUBLIC "-//W3C//DTD SVG 20010904//EN"
 "http://www.w3.org/TR/2001/REC-SVG-20010904/DTD/svg10.dtd">
<svg version="1.0" xmlns="http://www.w3.org/2000/svg"
 width="512.000000pt" height="512.000000pt" viewBox="0 0 512.000000 512.000000"
 preserveAspectRatio="xMidYMid meet">

<g transform="translate(0.000000,512.000000) scale(0.100000,-0.100000)"
fill="#000000" stroke="none">
<path d="M2350 4419 c-357 -40 -713 -195 -995 -431 -469 -392 -719 -1009 -655
-1617 93 -884 787 -1578 1671 -1671 607 -64 1225 186 1617 655 583 696 589
1683 15 2392 -390 482 -1030 742 -1653 672z m433 -144 c1006 -132 1679 -1089
1465 -2084 -63 -296 -209 -575 -419 -805 -66 -72 -193 -186 -208 -186 -4 0
-11 31 -15 69 -31 343 -291 692 -621 836 l-75 32 61 38 c182 112 313 305 355
522 65 342 -118 693 -439 844 -200 93 -454 93 -654 0 -358 -168 -536 -575
-412 -945 57 -172 165 -314 313 -411 l76 -49 -58 -24 c-259 -109 -479 -337
-578 -600 -35 -94 -64 -219 -64 -277 0 -19 -4 -35 -10 -35 -15 0 -140 111
-209 186 -229 249 -374 546 -437 889 -13 73 -18 150 -18 285 -1 198 8 268 54
445 219 835 1034 1383 1893 1270z m-73 -821 c175 -41 340 -172 419 -334 93
-190 93 -376 2 -566 -46 -97 -148 -210 -235 -263 -353 -212 -805 -50 -939 337
-57 166 -46 329 34 492 78 160 243 293 414 334 80 19 224 19 305 0z m37 -1420
c351 -72 635 -355 708 -703 7 -36 16 -104 20 -151 l7 -85 -74 -42 c-150 -86
-321 -149 -517 -190 -110 -23 -150 -27 -321 -27 -305 -1 -523 49 -785 180
-163 81 -151 63 -137 201 27 257 142 475 331 628 116 94 251 160 386 188 95
21 286 21 382 1z"/>
</g>
</svg>
